# xmcd CD database file
#
# Track frame offsets:
#	150
#	23272
#	39256
#	76207
#	92585
#	109206
#	124380
#	143892
#	163900
#
# Disc length: 2534 seconds
#
# Revision: 0
# Processed by: cddbd v1.4PL0 Copyright (c) Steve Scherf et al.
# Submitted via: CDex 1.50
#
DISCID=6909e409
DTITLE=Beni Hansen - Enlightenment Guided Meditation
DYEAR=2001
DGENRE=New Age
TTITLE0=Summer Rain
TTITLE1=Before
TTITLE2=Meditation
TTITLE3=Playa Blanca
TTITLE4=Island in the Sun
TTITLE5=Ships on the Sea
TTITLE6=Midnight Ride
TTITLE7=The Piper
TTITLE8=Mirasol
EXTD=YEAR: 2001
EXTT0=
EXTT1=
EXTT2=
EXTT3=
EXTT4=
EXTT5=
EXTT6=
EXTT7=
EXTT8=
PLAYORDER=
